<?xml version="1.0" encoding="UTF-8" standalone="no"?>
<!DOCTYPE svg PUBLIC "-//W3C//DTD SVG 1.1//EN"
 "http://www.w3.org/Graphics/SVG/1.1/DTD/svg11.dtd">
<!-- Generated by graphviz version 2.40.1 (20161225.0304)
 -->
<!-- Title: Tree Pages: 1 -->
<svg width="807pt" height="400pt"
 viewBox="0.00 0.00 807.08 400.00" xmlns="http://www.w3.org/2000/svg" xmlns:xlink="http://www.w3.org/1999/xlink">
<g id="graph0" class="graph" transform="scale(1 1) rotate(0) translate(4 396)">
<title>Tree</title>
<polygon fill="#ffffff" stroke="transparent" points="-4,4 -4,-396 803.0766,-396 803.0766,4 -4,4"/>
<!-- 0 -->
<g id="node1" class="node">
<title>0</title>
<polygon fill="none" stroke="#000000" points="592.2544,-392.1003 461.3632,-392.1003 461.3632,-316.6997 592.2544,-316.6997 592.2544,-392.1003"/>
<text text-anchor="middle" x="526.8088" y="-375.4" font-family="Times,serif" font-size="14.00" fill="#000000">vinf_cl &lt;= 157.0173</text>
<text text-anchor="middle" x="526.8088" y="-358.6" font-family="Times,serif" font-size="14.00" fill="#000000">impurity = 0.1067</text>
<text text-anchor="middle" x="526.8088" y="-341.8" font-family="Times,serif" font-size="14.00" fill="#000000">samples = 1990</text>
<text text-anchor="middle" x="526.8088" y="-325" font-family="Times,serif" font-size="14.00" fill="#000000">value = [28, 1962]</text>
</g>
<!-- 1 -->
<g id="node2" class="node">
<title>1</title>
<polygon fill="none" stroke="#000000" points="461.1437,-280.9003 326.4739,-280.9003 326.4739,-205.4997 461.1437,-205.4997 461.1437,-280.9003"/>
<text text-anchor="middle" x="393.8088" y="-264.2" font-family="Times,serif" font-size="14.00" fill="#000000">sigma_cl &lt;= 55.6963</text>
<text text-anchor="middle" x="393.8088" y="-247.4" font-family="Times,serif" font-size="14.00" fill="#000000">impurity = 0.3323</text>
<text text-anchor="middle" x="393.8088" y="-230.6" font-family="Times,serif" font-size="14.00" fill="#000000">samples = 392</text>
<text text-anchor="middle" x="393.8088" y="-213.8" font-family="Times,serif" font-size="14.00" fill="#000000">value = [24, 368]</text>
</g>
<!-- 0&#45;&gt;1 -->
<g id="edge1" class="edge">
<title>0&#45;&gt;1</title>
<path fill="none" stroke="#000000" d="M481.7811,-316.7528C470.5147,-307.3331 458.3273,-297.1433 446.7172,-287.4362"/>
<polygon fill="#000000" stroke="#000000" points="448.707,-284.5377 438.7902,-280.8085 444.217,-289.908 448.707,-284.5377"/>
<text text-anchor="middle" x="441.0131" y="-301.5095" font-family="Times,serif" font-size="14.00" fill="#000000">True</text>
</g>
<!-- 8 -->
<g id="node9" class="node">
<title>8</title>
<polygon fill="none" stroke="#000000" points="668.2544,-280.9003 537.3632,-280.9003 537.3632,-205.4997 668.2544,-205.4997 668.2544,-280.9003"/>
<text text-anchor="middle" x="602.8088" y="-264.2" font-family="Times,serif" font-size="14.00" fill="#000000">vinf_cl &lt;= 391.5319</text>
<text text-anchor="middle" x="602.8088" y="-247.4" font-family="Times,serif" font-size="14.00" fill="#000000">impurity = 0.0252</text>
<text text-anchor="middle" x="602.8088" y="-230.6" font-family="Times,serif" font-size="14.00" fill="#000000">samples = 1598</text>
<text text-anchor="middle" x="602.8088" y="-213.8" font-family="Times,serif" font-size="14.00" fill="#000000">value = [4, 1594]</text>
</g>
<!-- 0&#45;&gt;8 -->
<g id="edge8" class="edge">
<title>0&#45;&gt;8</title>
<path fill="none" stroke="#000000" d="M552.5389,-316.7528C558.6054,-307.8765 565.1393,-298.3165 571.424,-289.1209"/>
<polygon fill="#000000" stroke="#000000" points="574.3521,-291.0394 577.1052,-280.8085 568.5729,-287.0896 574.3521,-291.0394"/>
<text text-anchor="middle" x="581.7251" y="-301.1779" font-family="Times,serif" font-size="14.00" fill="#000000">False</text>
</g>
<!-- 2 -->
<g id="node3" class="node">
<title>2</title>
<polygon fill="none" stroke="#000000" points="260.2558,-169.7003 129.3618,-169.7003 129.3618,-94.2997 260.2558,-94.2997 260.2558,-169.7003"/>
<text text-anchor="middle" x="194.8088" y="-153" font-family="Times,serif" font-size="14.00" fill="#000000">T_cl &lt;= 35477.9219</text>
<text text-anchor="middle" x="194.8088" y="-136.2" font-family="Times,serif" font-size="14.00" fill="#000000">impurity = 0.133</text>
<text text-anchor="middle" x="194.8088" y="-119.4" font-family="Times,serif" font-size="14.00" fill="#000000">samples = 216</text>
<text text-anchor="middle" x="194.8088" y="-102.6" font-family="Times,serif" font-size="14.00" fill="#000000">value = [4, 212]</text>
</g>
<!-- 1&#45;&gt;2 -->
<g id="edge2" class="edge">
<title>1&#45;&gt;2</title>
<path fill="none" stroke="#000000" d="M326.4365,-205.5528C308.0391,-195.2724 288.0001,-184.0747 269.2341,-173.5884"/>
<polygon fill="#000000" stroke="#000000" points="270.8624,-170.4889 260.4255,-168.6662 267.4477,-176.5996 270.8624,-170.4889"/>
</g>
<!-- 5 -->
<g id="node6" class="node">
<title>5</title>
<polygon fill="none" stroke="#000000" points="452.427,-169.7003 335.1906,-169.7003 335.1906,-94.2997 452.427,-94.2997 452.427,-169.7003"/>
<text text-anchor="middle" x="393.8088" y="-153" font-family="Times,serif" font-size="14.00" fill="#000000">P_cl &lt;= 0.683</text>
<text text-anchor="middle" x="393.8088" y="-136.2" font-family="Times,serif" font-size="14.00" fill="#000000">impurity = 0.5108</text>
<text text-anchor="middle" x="393.8088" y="-119.4" font-family="Times,serif" font-size="14.00" fill="#000000">samples = 176</text>
<text text-anchor="middle" x="393.8088" y="-102.6" font-family="Times,serif" font-size="14.00" fill="#000000">value = [20, 156]</text>
</g>
<!-- 1&#45;&gt;5 -->
<g id="edge5" class="edge">
<title>1&#45;&gt;5</title>
<path fill="none" stroke="#000000" d="M393.8088,-205.5528C393.8088,-197.22 393.8088,-188.2845 393.8088,-179.6137"/>
<polygon fill="#000000" stroke="#000000" points="397.3089,-179.6084 393.8088,-169.6085 390.3089,-179.6085 397.3089,-179.6084"/>
</g>
<!-- 3 -->
<g id="node4" class="node">
<title>3</title>
<polygon fill="none" stroke="#000000" points="117.427,-58.6014 .1906,-58.6014 .1906,.2014 117.427,.2014 117.427,-58.6014"/>
<text text-anchor="middle" x="58.8088" y="-41.8" font-family="Times,serif" font-size="14.00" fill="#000000">impurity = 0.0472</text>
<text text-anchor="middle" x="58.8088" y="-25" font-family="Times,serif" font-size="14.00" fill="#000000">samples = 191</text>
<text text-anchor="middle" x="58.8088" y="-8.2" font-family="Times,serif" font-size="14.00" fill="#000000">value = [1, 190]</text>
</g>
<!-- 2&#45;&gt;3 -->
<g id="edge3" class="edge">
<title>2&#45;&gt;3</title>
<path fill="none" stroke="#000000" d="M144.9397,-94.3048C132.1291,-84.6215 118.3924,-74.2382 105.7363,-64.6717"/>
<polygon fill="#000000" stroke="#000000" points="107.684,-61.7566 97.5961,-58.5186 103.463,-67.3408 107.684,-61.7566"/>
</g>
<!-- 4 -->
<g id="node5" class="node">
<title>4</title>
<polygon fill="none" stroke="#000000" points="253.427,-58.6014 136.1906,-58.6014 136.1906,.2014 253.427,.2014 253.427,-58.6014"/>
<text text-anchor="middle" x="194.8088" y="-41.8" font-family="Times,serif" font-size="14.00" fill="#000000">impurity = 0.5294</text>
<text text-anchor="middle" x="194.8088" y="-25" font-family="Times,serif" font-size="14.00" fill="#000000">samples = 25</text>
<text text-anchor="middle" x="194.8088" y="-8.2" font-family="Times,serif" font-size="14.00" fill="#000000">value = [3, 22]</text>
</g>
<!-- 2&#45;&gt;4 -->
<g id="edge4" class="edge">
<title>2&#45;&gt;4</title>
<path fill="none" stroke="#000000" d="M194.8088,-94.3048C194.8088,-85.9126 194.8088,-76.9946 194.8088,-68.5382"/>
<polygon fill="#000000" stroke="#000000" points="198.3089,-68.5186 194.8088,-58.5186 191.3089,-68.5187 198.3089,-68.5186"/>
</g>
<!-- 6 -->
<g id="node7" class="node">
<title>6</title>
<polygon fill="none" stroke="#000000" points="389.427,-58.6014 272.1906,-58.6014 272.1906,.2014 389.427,.2014 389.427,-58.6014"/>
<text text-anchor="middle" x="330.8088" y="-41.8" font-family="Times,serif" font-size="14.00" fill="#000000">impurity = 0.3228</text>
<text text-anchor="middle" x="330.8088" y="-25" font-family="Times,serif" font-size="14.00" fill="#000000">samples = 119</text>
<text text-anchor="middle" x="330.8088" y="-8.2" font-family="Times,serif" font-size="14.00" fill="#000000">value = [7, 112]</text>
</g>
<!-- 5&#45;&gt;6 -->
<g id="edge6" class="edge">
<title>5&#45;&gt;6</title>
<path fill="none" stroke="#000000" d="M370.7077,-94.3048C365.282,-85.4515 359.4977,-76.013 354.0653,-67.1487"/>
<polygon fill="#000000" stroke="#000000" points="356.9859,-65.216 348.7764,-58.5186 351.0175,-68.8737 356.9859,-65.216"/>
</g>
<!-- 7 -->
<g id="node8" class="node">
<title>7</title>
<polygon fill="none" stroke="#000000" points="525.427,-58.6014 408.1906,-58.6014 408.1906,.2014 525.427,.2014 525.427,-58.6014"/>
<text text-anchor="middle" x="466.8088" y="-41.8" font-family="Times,serif" font-size="14.00" fill="#000000">impurity = 0.7746</text>
<text text-anchor="middle" x="466.8088" y="-25" font-family="Times,serif" font-size="14.00" fill="#000000">samples = 57</text>
<text text-anchor="middle" x="466.8088" y="-8.2" font-family="Times,serif" font-size="14.00" fill="#000000">value = [13, 44]</text>
</g>
<!-- 5&#45;&gt;7 -->
<g id="edge7" class="edge">
<title>5&#45;&gt;7</title>
<path fill="none" stroke="#000000" d="M420.5768,-94.3048C426.9292,-85.3593 433.7058,-75.8163 440.0574,-66.8718"/>
<polygon fill="#000000" stroke="#000000" points="443.0529,-68.6985 445.9891,-58.5186 437.3456,-64.6456 443.0529,-68.6985"/>
</g>
<!-- 9 -->
<g id="node10" class="node">
<title>9</title>
<polygon fill="none" stroke="#000000" points="668.2544,-169.7003 537.3632,-169.7003 537.3632,-94.2997 668.2544,-94.2997 668.2544,-169.7003"/>
<text text-anchor="middle" x="602.8088" y="-153" font-family="Times,serif" font-size="14.00" fill="#000000">vinf_cl &lt;= 391.2136</text>
<text text-anchor="middle" x="602.8088" y="-136.2" font-family="Times,serif" font-size="14.00" fill="#000000">impurity = 0.0588</text>
<text text-anchor="middle" x="602.8088" y="-119.4" font-family="Times,serif" font-size="14.00" fill="#000000">samples = 588</text>
<text text-anchor="middle" x="602.8088" y="-102.6" font-family="Times,serif" font-size="14.00" fill="#000000">value = [4, 584]</text>
</g>
<!-- 8&#45;&gt;9 -->
<g id="edge9" class="edge">
<title>8&#45;&gt;9</title>
<path fill="none" stroke="#000000" d="M602.8088,-205.5528C602.8088,-197.22 602.8088,-188.2845 602.8088,-179.6137"/>
<polygon fill="#000000" stroke="#000000" points="606.3089,-179.6084 602.8088,-169.6085 599.3089,-179.6085 606.3089,-179.6084"/>
</g>
<!-- 12 -->
<g id="node13" class="node">
<title>12</title>
<polygon fill="none" stroke="#000000" points="798.8454,-161.4014 686.7722,-161.4014 686.7722,-102.5986 798.8454,-102.5986 798.8454,-161.4014"/>
<text text-anchor="middle" x="742.8088" y="-144.6" font-family="Times,serif" font-size="14.00" fill="#000000">impurity = 0.0</text>
<text text-anchor="middle" x="742.8088" y="-127.8" font-family="Times,serif" font-size="14.00" fill="#000000">samples = 1010</text>
<text text-anchor="middle" x="742.8088" y="-111" font-family="Times,serif" font-size="14.00" fill="#000000">value = [0, 1010]</text>
</g>
<!-- 8&#45;&gt;12 -->
<g id="edge12" class="edge">
<title>8&#45;&gt;12</title>
<path fill="none" stroke="#000000" d="M650.2064,-205.5528C665.4668,-193.4316 682.3327,-180.0353 697.4432,-168.0332"/>
<polygon fill="#000000" stroke="#000000" points="699.9824,-170.4862 705.636,-161.5258 695.6286,-165.0048 699.9824,-170.4862"/>
</g>
<!-- 10 -->
<g id="node11" class="node">
<title>10</title>
<polygon fill="none" stroke="#000000" points="661.427,-58.6014 544.1906,-58.6014 544.1906,.2014 661.427,.2014 661.427,-58.6014"/>
<text text-anchor="middle" x="602.8088" y="-41.8" font-family="Times,serif" font-size="14.00" fill="#000000">impurity = 0.0463</text>
<text text-anchor="middle" x="602.8088" y="-25" font-family="Times,serif" font-size="14.00" fill="#000000">samples = 587</text>
<text text-anchor="middle" x="602.8088" y="-8.2" font-family="Times,serif" font-size="14.00" fill="#000000">value = [3, 584]</text>
</g>
<!-- 9&#45;&gt;10 -->
<g id="edge10" class="edge">
<title>9&#45;&gt;10</title>
<path fill="none" stroke="#000000" d="M602.8088,-94.3048C602.8088,-85.9126 602.8088,-76.9946 602.8088,-68.5382"/>
<polygon fill="#000000" stroke="#000000" points="606.3089,-68.5186 602.8088,-58.5186 599.3089,-68.5187 606.3089,-68.5186"/>
</g>
<!-- 11 -->
<g id="node12" class="node">
<title>11</title>
<polygon fill="none" stroke="#000000" points="775.9272,-58.6014 679.6904,-58.6014 679.6904,.2014 775.9272,.2014 775.9272,-58.6014"/>
<text text-anchor="middle" x="727.8088" y="-41.8" font-family="Times,serif" font-size="14.00" fill="#000000">impurity = 0.0</text>
<text text-anchor="middle" x="727.8088" y="-25" font-family="Times,serif" font-size="14.00" fill="#000000">samples = 1</text>
<text text-anchor="middle" x="727.8088" y="-8.2" font-family="Times,serif" font-size="14.00" fill="#000000">value = [1, 0]</text>
</g>
<!-- 9&#45;&gt;11 -->
<g id="edge11" class="edge">
<title>9&#45;&gt;11</title>
<path fill="none" stroke="#000000" d="M648.6444,-94.3048C660.3067,-84.7137 672.8041,-74.4359 684.3443,-64.9452"/>
<polygon fill="#000000" stroke="#000000" points="686.6583,-67.5738 692.1587,-58.5186 682.2119,-62.1673 686.6583,-67.5738"/>
</g>
</g>
</svg>
